<svg width="20" height="20" viewBox="0 0 20 20" fill="none" xmlns="http://www.w3.org/2000/svg">
<path d="M6.45898 15.9951C5.80273 15.9951 5.30143 15.8265 4.95508 15.4893C4.61328 15.1566 4.44238 14.6644 4.44238 14.0127V7.14258H5.60449V14.0264C5.60449 14.3089 5.67969 14.5231 5.83008 14.6689C5.98503 14.8193 6.2015 14.8945 6.47949 14.8945H13.5205C13.7985 14.8945 14.0127 14.8193 14.1631 14.6689C14.318 14.5231 14.3955 14.3089 14.3955 14.0264V7.14258H15.5508V14.0127C15.5508 14.6598 15.3799 15.152 15.0381 15.4893C14.6963 15.8265 14.1995 15.9951 13.5479 15.9951H6.45898ZM7.89453 10.3213C7.7487 10.3213 7.62793 10.2757 7.53223 10.1846C7.44108 10.0889 7.39551 9.96582 7.39551 9.81543V9.61035C7.39551 9.45996 7.44108 9.33919 7.53223 9.24805C7.62793 9.1569 7.7487 9.11133 7.89453 9.11133H12.1191C12.2604 9.11133 12.3766 9.1569 12.4678 9.24805C12.5635 9.33919 12.6113 9.45996 12.6113 9.61035V9.81543C12.6113 9.96582 12.5635 10.0889 12.4678 10.1846C12.3766 10.2757 12.2604 10.3213 12.1191 10.3213H7.89453ZM4.79785 7.70312C4.37858 7.70312 4.05501 7.58008 3.82715 7.33398C3.59928 7.08333 3.48535 6.74837 3.48535 6.3291V5.37207C3.48535 4.9528 3.60384 4.62012 3.84082 4.37402C4.0778 4.12793 4.39681 4.00488 4.79785 4.00488H15.209C15.6283 4.00488 15.9495 4.12793 16.1729 4.37402C16.4007 4.62012 16.5146 4.9528 16.5146 5.37207V6.3291C16.5146 6.74837 16.4007 7.08333 16.1729 7.33398C15.9495 7.58008 15.6283 7.70312 15.209 7.70312H4.79785ZM5.05762 6.62305H14.9561C15.1064 6.62305 15.2158 6.58659 15.2842 6.51367C15.3525 6.44076 15.3867 6.3291 15.3867 6.17871V5.5293C15.3867 5.37435 15.3525 5.26042 15.2842 5.1875C15.2158 5.11458 15.1064 5.07812 14.9561 5.07812H5.05762C4.90267 5.07812 4.79102 5.11458 4.72266 5.1875C4.6543 5.26042 4.62012 5.37435 4.62012 5.5293V6.17871C4.62012 6.3291 4.6543 6.44076 4.72266 6.51367C4.79102 6.58659 4.90267 6.62305 5.05762 6.62305Z" fill="#092539"/>
</svg>
