<svg width="20" height="20" viewBox="0 0 20 20" fill="none" xmlns="http://www.w3.org/2000/svg">
<path d="M9.35059 16.9658C9.09082 16.9658 8.86523 16.8929 8.67383 16.7471C8.48698 16.6012 8.36621 16.403 8.31152 16.1523L8.03809 14.9766L7.84668 14.9082L6.82812 15.5439C6.60938 15.6807 6.38151 15.7331 6.14453 15.7012C5.90755 15.6738 5.69564 15.5667 5.50879 15.3799L4.60645 14.4775C4.4196 14.2907 4.3125 14.0788 4.28516 13.8418C4.25781 13.6048 4.31022 13.3792 4.44238 13.165L5.07812 12.1465L5.00977 11.9688L3.84766 11.7021C3.60156 11.6429 3.40332 11.5199 3.25293 11.333C3.10254 11.1416 3.02734 10.916 3.02734 10.6562V9.38477C3.02734 9.125 3.10026 8.90169 3.24609 8.71484C3.39648 8.52344 3.59701 8.39811 3.84766 8.33887L5.00293 8.05859L5.07129 7.87402L4.43555 6.85547C4.30339 6.63672 4.25098 6.40885 4.27832 6.17188C4.30566 5.9349 4.41276 5.72526 4.59961 5.54297L5.50879 4.63379C5.68652 4.4515 5.89388 4.34668 6.13086 4.31934C6.36784 4.28743 6.5957 4.33757 6.81445 4.46973L7.83984 5.0918L8.03809 5.02344L8.31152 3.84766C8.36621 3.60156 8.48698 3.4056 8.67383 3.25977C8.86523 3.10938 9.09082 3.03418 9.35059 3.03418H10.6562C10.916 3.03418 11.1393 3.10938 11.3262 3.25977C11.5176 3.4056 11.6406 3.60156 11.6953 3.84766L11.9688 5.02344L12.167 5.0918L13.1855 4.46973C13.4089 4.33757 13.6367 4.28743 13.8691 4.31934C14.1061 4.34668 14.3158 4.4515 14.498 4.63379L15.4004 5.54297C15.5918 5.72526 15.7012 5.9349 15.7285 6.17188C15.7559 6.40885 15.7012 6.63672 15.5645 6.85547L14.9287 7.87402L15.0039 8.05859L16.166 8.33887C16.4167 8.39811 16.6126 8.52344 16.7539 8.71484C16.8997 8.90169 16.9727 9.125 16.9727 9.38477V10.6562C16.9727 10.916 16.8997 11.1416 16.7539 11.333C16.6081 11.5199 16.4121 11.6429 16.166 11.7021L14.9902 11.9688L14.9219 12.1465L15.5576 13.165C15.6943 13.3792 15.749 13.6048 15.7217 13.8418C15.6943 14.0788 15.585 14.2907 15.3936 14.4775L14.4912 15.3799C14.3044 15.5667 14.0924 15.6738 13.8555 15.7012C13.623 15.7331 13.3975 15.6807 13.1787 15.5439L12.1602 14.9082L11.9688 14.9766L11.6953 16.1523C11.6406 16.403 11.5176 16.6012 11.3262 16.7471C11.1393 16.8929 10.916 16.9658 10.6562 16.9658H9.35059ZM9.48047 15.8721H10.5264C10.6266 15.8721 10.6859 15.8242 10.7041 15.7285L11.0938 14.1289C11.3034 14.0788 11.4971 14.015 11.6748 13.9375C11.8571 13.86 12.0234 13.7757 12.1738 13.6846L13.5752 14.5459C13.6618 14.6051 13.7415 14.5938 13.8145 14.5117L14.5322 13.7871C14.6051 13.7233 14.6143 13.6481 14.5596 13.5615L13.6982 12.1602C13.7803 12.0143 13.86 11.8503 13.9375 11.668C14.0195 11.4857 14.0833 11.2943 14.1289 11.0938L15.7354 10.7109C15.8311 10.6927 15.8789 10.6312 15.8789 10.5264V9.50098C15.8789 9.39616 15.8311 9.33464 15.7354 9.31641L14.1357 8.93359C14.0902 8.7194 14.0241 8.51888 13.9375 8.33203C13.8555 8.14518 13.778 7.98568 13.7051 7.85352L14.5664 6.45898C14.6257 6.36784 14.6188 6.28809 14.5459 6.21973L13.8213 5.50195C13.7484 5.43815 13.6663 5.42904 13.5752 5.47461L12.1807 6.3291C12.0257 6.24251 11.8571 6.16048 11.6748 6.08301C11.4925 6.00098 11.2988 5.93262 11.0938 5.87793L10.7041 4.27148C10.6859 4.18034 10.6266 4.13477 10.5264 4.13477H9.48047C9.38021 4.13477 9.32096 4.18034 9.30273 4.27148L8.91992 5.87793C8.7194 5.92806 8.52116 5.99414 8.3252 6.07617C8.12923 6.15365 7.96061 6.23568 7.81934 6.32227L6.43164 5.46777C6.34049 5.4222 6.25618 5.43359 6.17871 5.50195L5.4541 6.21289C5.38574 6.28581 5.37891 6.36784 5.43359 6.45898L6.29492 7.85352C6.22656 7.98568 6.15137 8.14518 6.06934 8.33203C5.9873 8.51888 5.92122 8.7194 5.87109 8.93359L4.27148 9.31641C4.17578 9.33464 4.12793 9.39616 4.12793 9.50098V10.5264C4.12793 10.6312 4.17578 10.6927 4.27148 10.7109L5.87793 11.0938C5.9235 11.2943 5.98503 11.4857 6.0625 11.668C6.14453 11.8503 6.22656 12.0143 6.30859 12.1602L5.44043 13.5615C5.38574 13.6527 5.39486 13.7279 5.46777 13.7871L6.18555 14.5186C6.25846 14.596 6.34049 14.6051 6.43164 14.5459L7.83301 13.6846C7.97884 13.7757 8.1429 13.8623 8.3252 13.9443C8.51204 14.0218 8.70801 14.0833 8.91309 14.1289L9.30273 15.7285C9.32096 15.8242 9.38021 15.8721 9.48047 15.8721ZM10 12.4541C9.54883 12.4541 9.13639 12.3447 8.7627 12.126C8.39355 11.9027 8.09733 11.6064 7.87402 11.2373C7.65527 10.8682 7.5459 10.4557 7.5459 10C7.5459 9.54427 7.65527 9.13184 7.87402 8.7627C8.09733 8.39355 8.39355 8.09961 8.7627 7.88086C9.13639 7.65755 9.54883 7.5459 10 7.5459C10.4557 7.5459 10.8682 7.65755 11.2373 7.88086C11.611 8.09961 11.9072 8.39355 12.126 8.7627C12.3493 9.13184 12.4609 9.54427 12.4609 10C12.4609 10.4557 12.3493 10.8682 12.126 11.2373C11.9072 11.6064 11.611 11.9027 11.2373 12.126C10.8682 12.3447 10.4557 12.4541 10 12.4541ZM10 11.4014C10.2552 11.4014 10.4876 11.3376 10.6973 11.21C10.9115 11.0824 11.0824 10.9137 11.21 10.7041C11.3376 10.4899 11.4014 10.2552 11.4014 10C11.4014 9.74479 11.3376 9.51237 11.21 9.30273C11.0824 9.08854 10.9115 8.91764 10.6973 8.79004C10.4876 8.66243 10.2552 8.59863 10 8.59863C9.74479 8.59863 9.51009 8.66243 9.2959 8.79004C9.08626 8.91764 8.91764 9.08854 8.79004 9.30273C8.66699 9.51237 8.60547 9.74479 8.60547 10C8.60547 10.2552 8.66699 10.4899 8.79004 10.7041C8.91764 10.9137 9.08626 11.0824 9.2959 11.21C9.51009 11.3376 9.74479 11.4014 10 11.4014Z" fill="#092539"/>
</svg>
