<svg width="20" height="20" viewBox="0 0 20 20" fill="none" xmlns="http://www.w3.org/2000/svg">
<path d="M5.48486 9.0874C4.96989 9.0874 4.49821 8.95752 4.06982 8.69775C3.64144 8.43799 3.29964 8.09391 3.04443 7.66553C2.78923 7.23714 2.66162 6.76774 2.66162 6.25732C2.66162 5.74235 2.78923 5.27067 3.04443 4.84229C3.29964 4.4139 3.63916 4.0721 4.06299 3.81689C4.49137 3.56169 4.96533 3.43408 5.48486 3.43408C5.99528 3.43408 6.46468 3.56169 6.89307 3.81689C7.32145 4.0721 7.66325 4.4139 7.91846 4.84229C8.17367 5.27067 8.30127 5.74235 8.30127 6.25732C8.30127 6.7723 8.17367 7.24398 7.91846 7.67236C7.66325 8.09619 7.32145 8.43799 6.89307 8.69775C6.46468 8.95752 5.99528 9.0874 5.48486 9.0874ZM5.48486 8.05518C5.80843 8.05518 6.10465 7.97314 6.37354 7.80908C6.64697 7.64502 6.86572 7.42627 7.02979 7.15283C7.19385 6.87939 7.27588 6.58089 7.27588 6.25732C7.27588 5.93376 7.19385 5.63525 7.02979 5.36182C6.86572 5.08838 6.64697 4.86963 6.37354 4.70557C6.10465 4.5415 5.80843 4.45947 5.48486 4.45947C5.1613 4.45947 4.86279 4.5415 4.58936 4.70557C4.31592 4.86963 4.09717 5.08838 3.93311 5.36182C3.76904 5.63525 3.68701 5.93376 3.68701 6.25732C3.68701 6.58089 3.76904 6.87939 3.93311 7.15283C4.09717 7.42627 4.31592 7.64502 4.58936 7.80908C4.86279 7.97314 5.1613 8.05518 5.48486 8.05518ZM5.48486 16.5659C4.96989 16.5659 4.49821 16.4383 4.06982 16.1831C3.64144 15.9279 3.29964 15.5861 3.04443 15.1577C2.78923 14.7293 2.66162 14.2576 2.66162 13.7427C2.66162 13.2323 2.78923 12.7629 3.04443 12.3345C3.29964 11.9061 3.63916 11.5643 4.06299 11.3091C4.49137 11.0493 4.96533 10.9194 5.48486 10.9194C5.99528 10.9194 6.46468 11.0493 6.89307 11.3091C7.32145 11.5643 7.66325 11.9061 7.91846 12.3345C8.17367 12.7583 8.30127 13.2277 8.30127 13.7427C8.30127 14.2576 8.17367 14.7293 7.91846 15.1577C7.66325 15.5861 7.32145 15.9279 6.89307 16.1831C6.46468 16.4383 5.99528 16.5659 5.48486 16.5659ZM5.48486 15.5405C5.80843 15.5405 6.10465 15.4585 6.37354 15.2944C6.64697 15.1304 6.86572 14.9116 7.02979 14.6382C7.19385 14.3647 7.27588 14.0662 7.27588 13.7427C7.27588 13.4191 7.19385 13.1206 7.02979 12.8472C6.86572 12.5737 6.64697 12.355 6.37354 12.1909C6.10465 12.0269 5.80843 11.9448 5.48486 11.9448C5.1613 11.9448 4.86279 12.0269 4.58936 12.1909C4.31592 12.355 4.09717 12.5737 3.93311 12.8472C3.76904 13.1206 3.68701 13.4191 3.68701 13.7427C3.68701 14.0662 3.76904 14.3647 3.93311 14.6382C4.09717 14.9116 4.31592 15.1304 4.58936 15.2944C4.86279 15.4585 5.1613 15.5405 5.48486 15.5405ZM10.3315 6.83154C10.172 6.83154 10.0376 6.77686 9.92822 6.66748C9.81885 6.55355 9.76416 6.41911 9.76416 6.26416C9.76416 6.10465 9.81885 5.97021 9.92822 5.86084C10.0376 5.74691 10.172 5.68994 10.3315 5.68994H16.7642C16.9237 5.68994 17.0581 5.74691 17.1675 5.86084C17.2814 5.97021 17.3384 6.10465 17.3384 6.26416C17.3384 6.41911 17.2814 6.55355 17.1675 6.66748C17.0581 6.77686 16.9237 6.83154 16.7642 6.83154H10.3315ZM10.3315 14.3101C10.172 14.3101 10.0376 14.2554 9.92822 14.146C9.81885 14.0366 9.76416 13.9022 9.76416 13.7427C9.76416 13.5832 9.81885 13.4487 9.92822 13.3394C10.0376 13.23 10.172 13.1753 10.3315 13.1753H16.7642C16.9237 13.1753 17.0581 13.23 17.1675 13.3394C17.2814 13.4487 17.3384 13.5832 17.3384 13.7427C17.3384 13.9022 17.2814 14.0366 17.1675 14.146C17.0581 14.2554 16.9237 14.3101 16.7642 14.3101H10.3315Z" fill="#092539"/>
</svg>
